<svg width="51" height="56" xmlns="http://www.w3.org/2000/svg">
 <defs>
  <style>.cls-1{fill:#071d49;}</style>
 </defs>
 <g>
  <title>Layer 1</title>
  <path id="svg_1" d="m15.63,17.59a11.06,11.06 0 0 0 0,15.63l17.59,-17.59a11,11 0 0 0 0,-15.63l-17.59,17.59z"/>
  <path id="svg_2" d="m33.22,35.17a11.06,11.06 0 0 0 -15.63,0l17.58,17.59a11.06,11.06 0 0 0 15.64,0l-17.59,-17.59z"/>
  <path id="svg_3" d="m23.45,45l-7.82,7.81a11,11 0 0 1 -15.63,-0.05l15.63,-15.63l7.82,7.87z"/>
  <path id="svg_14" d="m15.63,17.59a11.06,11.06 0 0 0 0,15.63l17.59,-17.59a11,11 0 0 0 0,-15.63l-17.59,17.59z" class="cls-1"/>
  <path id="svg_15" d="m33.22,35.17a11.06,11.06 0 0 0 -15.63,0l17.58,17.59a11.06,11.06 0 0 0 15.64,0l-17.59,-17.59z" class="cls-1"/>
  <path id="svg_16" d="m23.45,45l-7.82,7.81a11,11 0 0 1 -15.63,-0.05l15.63,-15.63l7.82,7.87z" class="cls-1"/>
 </g>
</svg>