<svg xmlns="http://www.w3.org/2000/svg" viewBox="0 0 297.72 56"><defs><style>.cls-1{fill:black;}</style></defs><g id="Warstwa_2" data-name="Warstwa 2"><g id="Warstwa_1-2" data-name="Warstwa 1"><path d="M15.63,17.59a11.06,11.06,0,0,0,0,15.63L33.22,15.63A11,11,0,0,0,33.22,0Z"/><path d="M33.22,35.17a11.06,11.06,0,0,0-15.63,0L35.17,52.76a11.06,11.06,0,0,0,15.64,0Z"/><path d="M23.45,45l-7.82,7.81A11,11,0,0,1,0,52.76L15.63,37.13Z"/><path d="M77.85,15.54h7L95.36,45H89.44l-2.06-5.8H75.16l-2,5.8H67.39Zm7.94,18.61L81.46,21.76h-.33L76.8,34.15Z"/><path d="M111.12,47.42h5c.42,2,2.18,3.24,5.17,3.24,3.94,0,5.88-2.1,5.88-5.88V41.92h-.34a7.71,7.71,0,0,1-6.64,3.36c-6,0-10.37-4.45-10.37-11.47s4.32-11.5,10.21-11.5a7.93,7.93,0,0,1,6.76,3.4h.33V22.85h5.42V44.78c0,6-3.78,10.37-11.25,10.37C114.94,55.15,111.5,51.54,111.12,47.42Zm16.13-13.61c0-4.11-2.52-6.55-6-6.55s-5.88,2.65-5.88,6.55,2.4,6.56,5.93,6.56S127.25,37.55,127.25,33.81Z"/><path d="M137,33.9c0-6.55,4.79-11.59,11.77-11.59A11.32,11.32,0,0,1,160.52,33.9a11.35,11.35,0,0,1-11.76,11.59C141.83,45.49,137,40.49,137,33.9Zm18,0c0-3.82-2.6-6.64-6.21-6.64s-6.22,2.82-6.22,6.64,2.6,6.64,6.22,6.64S155,37.76,155,33.9Z"/><path d="M187.75,22.85h5.17v3.61h.33a6.25,6.25,0,0,1,5.8-3.69h2V28H198.8c-3.49,0-5.59,2.56-5.59,6.51V45h-5.46Z"/><path d="M203.63,34c0-6.93,4.2-11.71,10.25-11.71a8,8,0,0,1,6.72,3.4h.29V22.85h5.46V45H221V42.13h-.3A7.75,7.75,0,0,1,214,45.49C207.87,45.49,203.63,40.87,203.63,34ZM221,33.94c0-4.16-2.52-6.68-6-6.68s-5.88,2.77-5.88,6.68,2.4,6.64,5.92,6.64S221,37.64,221,33.94Z"/><path d="M230.55,34c0-6.93,4.2-11.71,10.25-11.71a8,8,0,0,1,6.72,3.4h.3V13.44h5.46V45H247.9V42.13h-.29A7.77,7.77,0,0,1,241,45.49C234.8,45.49,230.55,40.87,230.55,34Zm17.39-.08c0-4.16-2.52-6.68-6-6.68S236.1,30,236.1,33.94s2.39,6.64,5.92,6.64S247.94,37.64,247.94,33.94Z"/><path d="M257.48,34c0-7,4.66-11.71,11.13-11.71,7.1,0,11,5.25,11,11.46v1.72h-16.8a5.64,5.64,0,0,0,6,5.63c2.69,0,4.74-1.26,5.5-3.06h5.08c-1.09,4.49-5,7.43-10.75,7.43C262.1,45.49,257.48,40.62,257.48,34Zm16.89-2.39c-.26-3-2.57-5-5.76-5a5.67,5.67,0,0,0-5.75,5Z"/><path d="M284.4,22.85h5.17v3.61h.34a6.24,6.24,0,0,1,5.79-3.69h2V28h-2.27c-3.48,0-5.58,2.56-5.58,6.51V45H284.4Z"/><path d="M163.42,15.54v4.92h8.44v18.9A5.59,5.59,0,0,0,177.45,45V20.46H186V15.54Z"/><path d="M106,40.16c-1.13,0-1.76-.68-1.76-1.93V18.9a5.47,5.47,0,0,0-5.46-5.46h0V38.73c0,3.91,2.18,6.22,6,6.22h2V40.16Z"/><path class="cls-1" d="M15.63,17.59a11.06,11.06,0,0,0,0,15.63L33.22,15.63A11,11,0,0,0,33.22,0Z"/><path class="cls-1" d="M33.22,35.17a11.06,11.06,0,0,0-15.63,0L35.17,52.76a11.06,11.06,0,0,0,15.64,0Z"/><path class="cls-1" d="M23.45,45l-7.82,7.81A11,11,0,0,1,0,52.76L15.63,37.13Z"/><path class="cls-1" d="M77.85,15.54h7L95.36,45H89.44l-2.06-5.8H75.16l-2,5.8H67.39Zm7.94,18.61L81.46,21.76h-.33L76.8,34.15Z"/><path class="cls-1" d="M111.12,47.42h5c.42,2,2.18,3.24,5.17,3.24,3.94,0,5.88-2.1,5.88-5.88V41.92h-.34a7.71,7.71,0,0,1-6.64,3.36c-6,0-10.37-4.45-10.37-11.47s4.32-11.5,10.21-11.5a7.93,7.93,0,0,1,6.76,3.4h.33V22.85h5.42V44.78c0,6-3.78,10.37-11.25,10.37C114.94,55.15,111.5,51.54,111.12,47.42Zm16.13-13.61c0-4.11-2.52-6.55-6-6.55s-5.88,2.65-5.88,6.55,2.4,6.56,5.93,6.56S127.25,37.55,127.25,33.81Z"/><path class="cls-1" d="M137,33.9c0-6.55,4.79-11.59,11.77-11.59A11.32,11.32,0,0,1,160.52,33.9a11.35,11.35,0,0,1-11.76,11.59C141.83,45.49,137,40.49,137,33.9Zm18,0c0-3.82-2.6-6.64-6.21-6.64s-6.22,2.82-6.22,6.64,2.6,6.64,6.22,6.64S155,37.76,155,33.9Z"/><path class="cls-1" d="M187.75,22.85h5.17v3.61h.33a6.25,6.25,0,0,1,5.8-3.69h2V28H198.8c-3.49,0-5.59,2.56-5.59,6.51V45h-5.46Z"/><path class="cls-1" d="M203.63,34c0-6.93,4.2-11.71,10.25-11.71a8,8,0,0,1,6.72,3.4h.29V22.85h5.46V45H221V42.13h-.3A7.75,7.75,0,0,1,214,45.49C207.87,45.49,203.63,40.87,203.63,34ZM221,33.94c0-4.16-2.52-6.68-6-6.68s-5.88,2.77-5.88,6.68,2.4,6.64,5.92,6.64S221,37.64,221,33.94Z"/><path class="cls-1" d="M230.55,34c0-6.93,4.2-11.71,10.25-11.71a8,8,0,0,1,6.72,3.4h.3V13.44h5.46V45H247.9V42.13h-.29A7.77,7.77,0,0,1,241,45.49C234.8,45.49,230.55,40.87,230.55,34Zm17.39-.08c0-4.16-2.52-6.68-6-6.68S236.1,30,236.1,33.94s2.39,6.64,5.92,6.64S247.94,37.64,247.94,33.94Z"/><path class="cls-1" d="M257.48,34c0-7,4.66-11.71,11.13-11.71,7.1,0,11,5.25,11,11.46v1.72h-16.8a5.64,5.64,0,0,0,6,5.63c2.69,0,4.74-1.26,5.5-3.06h5.08c-1.09,4.49-5,7.43-10.75,7.43C262.1,45.49,257.48,40.62,257.48,34Zm16.89-2.39c-.26-3-2.57-5-5.76-5a5.67,5.67,0,0,0-5.75,5Z"/><path class="cls-1" d="M284.4,22.85h5.17v3.61h.34a6.24,6.24,0,0,1,5.79-3.69h2V28h-2.27c-3.48,0-5.58,2.56-5.58,6.51V45H284.4Z"/><path class="cls-1" d="M163.42,15.54v4.92h8.44v18.9A5.59,5.59,0,0,0,177.45,45V20.46H186V15.54Z"/><path class="cls-1" d="M106,40.16c-1.13,0-1.76-.68-1.76-1.93V18.9a5.47,5.47,0,0,0-5.46-5.46h0V38.73c0,3.91,2.18,6.22,6,6.22h2V40.16Z"/></g></g></svg>